<?xml version="1.0" encoding="utf-8"?>
<!-- Generator: Adobe Illustrator 16.0.0, SVG Export Plug-In . SVG Version: 6.00 Build 0)  -->
<!DOCTYPE svg PUBLIC "-//W3C//DTD SVG 1.1//EN" "http://www.w3.org/Graphics/SVG/1.1/DTD/svg11.dtd">
<svg version="1.1" xmlns="http://www.w3.org/2000/svg" xmlns:xlink="http://www.w3.org/1999/xlink" x="0px" y="0px" width="500px"
	 height="500px" viewBox="0 0 500 500" style="enable-background:new 0 0 500 500;" xml:space="preserve">
<style type="text/css">
<![CDATA[
	.st0{fill:#EB001B;}
	.st1{fill:#1D1D1B;}
	.st2{opacity:0.45;fill:none;stroke:#000000;stroke-width:24;stroke-miterlimit:10;}
	.st3{opacity:0.45;fill:none;stroke:#000000;stroke-width:33;stroke-miterlimit:10;}
	.st4{fill:#211E1F;}
	.st5{fill:none;stroke:#000000;stroke-width:10;stroke-miterlimit:10;}
	.st6{fill:url(#path10283_1_);}
	.st7{fill:#231F20;}
	.st8{fill:none;stroke:#000000;stroke-width:17;stroke-linejoin:round;stroke-miterlimit:10;}
	.st9{fill:#F79410;}
	.st10{fill:#F79E1B;}
	.st11{clip-path:url(#SVGID_2_);}
	.st12{fill:#FF5F00;}
	.st13{fill:#FFFFFF;}
	.st14{fill:none;}
	.st15{fill:none;stroke:#000000;stroke-width:18;stroke-miterlimit:10;}
	.st16{fill:#FFFFFF;stroke:#000000;stroke-width:18;stroke-miterlimit:10;}
	.st17{fill:#6C6BBD;}
	.st18{fill:#0079BE;}
	.st19{fill:#0099DF;}
	.st20{fill:#1D1D1B;stroke:#1D1D1B;stroke-width:4.6655;stroke-miterlimit:10;}
	.st21{fill:none;stroke:#000000;stroke-width:26;stroke-miterlimit:10;}
	.st22{fill:#1D1D1B;stroke:#1D1D1B;stroke-width:6.2207;stroke-miterlimit:10;}
	.st23{opacity:0.45;fill:none;stroke:#000000;stroke-width:30;stroke-miterlimit:10;}
	.st24{fill:none;stroke:#000000;stroke-width:17;stroke-linejoin:bevel;stroke-miterlimit:10;}
]]>
</style>
<g id="paypal_x5F_logo">
</g>
<g id="cheque">
</g>
<g id="carte">
</g>
<g id="cb">
	<g>
		<path d="M150.942,198.917h111.034c-0.985-21.928-6.579-44.539-23.549-59.062c-20.193-17.301-55.573-23.72-87.198-23.72
			c-32.916,0-69.303,7.044-89.609,25.606c-17.52,15.984-21.312,41.714-21.312,64.826c0,24.213,7.413,52.369,26.413,68.599
			C86.934,292.421,119.658,297,151.229,297c30.678,0,63.895-5.166,83.975-21.559c20.023-16.363,26.942-43.932,26.942-68.874
			c0-0.038,0-0.076,0-0.114H150.942V198.917z"/>
		<path d="M269.427,206.453v86.508h154.455v-0.113c22.599-1.128,40.575-19.748,40.575-42.613c0-22.867-17.977-42.682-40.575-43.818
			v0.037H269.427z"/>
		<path d="M461.631,159.261c0-22.032-17.481-39.504-39.513-39.504c-1.518,0-3.394-0.284-4.873-0.123H269.427v79.284h155.725
			C445.571,197.163,461.631,180.127,461.631,159.261z"/>
	</g>
	<path class="st24" d="M488.5,390.5c0,4.971-4.029,9-9,9h-456c-4.971,0-9-4.029-9-9v-291c0-4.971,4.029-9,9-9h456
		c4.971,0,9,4.029,9,9V390.5z"/>
	<g>
		<rect x="46.001" y="328" class="st14" width="422" height="48"/>
		<path d="M84.582,353.811l7.987,2.532c-1.225,4.453-3.261,7.761-6.109,9.922c-2.849,2.162-6.462,3.243-10.841,3.243
			c-5.418,0-9.871-1.852-13.359-5.553c-3.488-3.702-5.232-8.763-5.232-15.183c0-6.791,1.754-12.065,5.261-15.822
			c3.507-3.758,8.117-5.636,13.833-5.636c4.99,0,9.045,1.475,12.162,4.425c1.855,1.744,3.247,4.249,4.175,7.515l-8.155,1.948
			c-0.482-2.115-1.488-3.785-3.02-5.01c-1.53-1.225-3.391-1.837-5.58-1.837c-3.024,0-5.479,1.086-7.361,3.256
			c-1.884,2.172-2.825,5.688-2.825,10.549c0,5.158,0.928,8.832,2.783,11.021s4.268,3.284,7.236,3.284
			c2.189,0,4.072-0.696,5.649-2.087C82.763,358.986,83.895,356.798,84.582,353.811z"/>
		<path d="M136.433,368.812h-8.963l-3.562-9.269h-16.309l-3.368,9.269h-8.739l15.893-40.802h8.711L136.433,368.812z
			 M121.264,352.669l-5.622-15.141l-5.511,15.141H121.264z"/>
		<path d="M140.83,368.812V328.01h17.339c4.36,0,7.529,0.367,9.505,1.1c1.977,0.732,3.558,2.036,4.745,3.91
			c1.188,1.875,1.781,4.018,1.781,6.43c0,3.061-0.899,5.59-2.699,7.584s-4.49,3.252-8.071,3.771c1.781,1.039,3.252,2.18,4.411,3.423
			s2.723,3.451,4.689,6.624l4.982,7.96h-9.853l-5.956-8.878c-2.115-3.174-3.562-5.172-4.342-5.998s-1.605-1.392-2.477-1.698
			c-0.873-0.306-2.255-0.459-4.147-0.459h-1.67v17.033H140.83z M149.068,345.266h6.095c3.953,0,6.42-0.167,7.404-0.501
			c0.982-0.334,1.753-0.909,2.31-1.726s0.835-1.837,0.835-3.062c0-1.373-0.366-2.481-1.1-3.326
			c-0.733-0.844-1.768-1.378-3.104-1.601c-0.668-0.092-2.672-0.139-6.012-0.139h-6.429V345.266z"/>
		<path d="M191.151,368.812v-33.899h-12.107v-6.902h32.424v6.902H199.39v33.899H191.151z"/>
		<path d="M216.784,368.812V328.01h30.254v6.902h-22.016v9.045h20.484v6.875h-20.484v11.105h22.795v6.874H216.784z"/>
		<path d="M270.668,328.01h16.31c3.229,0,5.636,0.135,7.223,0.403c1.586,0.27,3.006,0.831,4.258,1.685
			c1.253,0.854,2.297,1.989,3.131,3.409c0.836,1.419,1.253,3.011,1.253,4.772c0,1.912-0.515,3.665-1.545,5.261
			c-1.029,1.597-2.426,2.793-4.188,3.591c2.486,0.723,4.397,1.957,5.733,3.701s2.004,3.795,2.004,6.15
			c0,1.855-0.432,3.66-1.294,5.414c-0.863,1.753-2.042,3.154-3.535,4.202c-1.493,1.049-3.335,1.694-5.524,1.935
			c-1.373,0.148-4.686,0.241-9.937,0.278h-13.888V328.01z M278.906,334.801v9.436h5.399c3.21,0,5.205-0.047,5.984-0.14
			c1.409-0.167,2.519-0.654,3.325-1.461c0.808-0.808,1.211-1.869,1.211-3.187c0-1.262-0.348-2.287-1.044-3.076
			c-0.695-0.788-1.73-1.266-3.104-1.434c-0.816-0.092-3.163-0.139-7.041-0.139H278.906z M278.906,351.027v10.91h7.626
			c2.969,0,4.852-0.084,5.65-0.251c1.225-0.223,2.222-0.766,2.991-1.628c0.77-0.863,1.155-2.018,1.155-3.465
			c0-1.225-0.297-2.264-0.891-3.117s-1.452-1.476-2.574-1.865c-1.123-0.39-3.559-0.584-7.307-0.584H278.906z"/>
		<path d="M312.026,368.812v-40.468h8.238v33.594h20.484v6.874H312.026z"/>
		<path d="M346.622,368.812V328.01h30.254v6.902H354.86v9.045h20.484v6.875H354.86v11.105h22.795v6.874H346.622z"/>
		<path d="M384.586,328.01h8.238v22.099c0,3.507,0.102,5.78,0.306,6.819c0.353,1.67,1.192,3.01,2.519,4.021s3.141,1.517,5.441,1.517
			c2.338,0,4.101-0.478,5.288-1.434c1.188-0.955,1.901-2.129,2.144-3.521c0.24-1.392,0.361-3.701,0.361-6.93V328.01h8.238v21.431
			c0,4.898-0.223,8.359-0.668,10.382c-0.445,2.021-1.267,3.729-2.463,5.121c-1.197,1.391-2.797,2.5-4.801,3.325
			s-4.621,1.239-7.85,1.239c-3.896,0-6.851-0.451-8.864-1.351s-3.604-2.068-4.772-3.507c-1.17-1.438-1.939-2.945-2.311-4.522
			c-0.538-2.338-0.807-5.789-0.807-10.354V328.01z"/>
		<path d="M425.804,368.812V328.01h30.254v6.902h-22.016v9.045h20.484v6.875h-20.484v11.105h22.795v6.874H425.804z"/>
	</g>
</g>
<g id="paypal_1_">
</g>
<g id="cheque_1_">
</g>
<g id="visa">
</g>
<g id="mastercard">
</g>
<g id="diners_1_">
</g>
<g id="diners">
</g>
<g id="maestro_1_">
</g>
<g id="flat_x5F_maestro">
</g>
</svg>
