<?xml version="1.0" encoding="utf-8"?>
<!-- Generator: Adobe Illustrator 16.0.0, SVG Export Plug-In . SVG Version: 6.00 Build 0)  -->
<!DOCTYPE svg PUBLIC "-//W3C//DTD SVG 1.1//EN" "http://www.w3.org/Graphics/SVG/1.1/DTD/svg11.dtd">
<svg version="1.1" xmlns="http://www.w3.org/2000/svg" xmlns:xlink="http://www.w3.org/1999/xlink" x="0px" y="0px" width="500px"
	 height="500px" viewBox="0 0 500 500" style="enable-background:new 0 0 500 500;" xml:space="preserve">
<style type="text/css">
<![CDATA[
	.st0{fill:#EB001B;}
	.st1{fill:#1D1D1B;}
	.st2{opacity:0.45;fill:none;stroke:#000000;stroke-width:24;stroke-miterlimit:10;}
	.st3{opacity:0.45;fill:none;stroke:#000000;stroke-width:33;stroke-miterlimit:10;}
	.st4{fill:#211E1F;}
	.st5{fill:none;stroke:#000000;stroke-width:10;stroke-miterlimit:10;}
	.st6{fill:url(#path10283_1_);}
	.st7{fill:#231F20;}
	.st8{fill:none;stroke:#000000;stroke-width:17;stroke-linejoin:round;stroke-miterlimit:10;}
	.st9{fill:#F79410;}
	.st10{fill:#F79E1B;}
	.st11{clip-path:url(#SVGID_2_);}
	.st12{fill:#FF5F00;}
	.st13{fill:#FFFFFF;}
	.st14{fill:none;}
	.st15{fill:none;stroke:#000000;stroke-width:18;stroke-miterlimit:10;}
	.st16{fill:#FFFFFF;stroke:#000000;stroke-width:18;stroke-miterlimit:10;}
	.st17{fill:#6C6BBD;}
	.st18{fill:#0079BE;}
	.st19{fill:#0099DF;}
	.st20{fill:#1D1D1B;stroke:#1D1D1B;stroke-width:4.6655;stroke-miterlimit:10;}
	.st21{fill:none;stroke:#000000;stroke-width:26;stroke-miterlimit:10;}
	.st22{fill:#1D1D1B;stroke:#1D1D1B;stroke-width:6.2207;stroke-miterlimit:10;}
	.st23{opacity:0.45;fill:none;stroke:#000000;stroke-width:30;stroke-miterlimit:10;}
	.st24{fill:none;stroke:#000000;stroke-width:17;stroke-linejoin:bevel;stroke-miterlimit:10;}
]]>
</style>
<g id="paypal_x5F_logo">
</g>
<g id="cheque">
</g>
<g id="carte">
</g>
<g id="cb">
</g>
<g id="paypal_1_">
</g>
<g id="cheque_1_">
	<path class="st24" d="M487.5,390.5c0,4.971-4.029,9-9,9h-456c-4.971,0-9-4.029-9-9v-291c0-4.971,4.029-9,9-9h456
		c4.971,0,9,4.029,9,9V390.5z"/>
	<g>
		<path d="M457.596,252.279c-5.801,3.148-15.908,6.131-26.347,6.131c-17.563,0-33.636-7.125-43.412-20.713
			c-3.646-5.136-6.628-11.102-8.286-18.558h-10.77v-13.421h8.947c0-0.829,0-1.823,0-2.817c0-1.326,0.166-2.485,0.166-3.812h-9.113
			v-13.422h11.268c1.987-7.787,5.633-14.581,10.439-20.214c9.775-11.599,24.025-18.393,40.761-18.393
			c9.941,0,19.387,2.154,26.015,4.97l-5.303,22.204c-4.309-1.657-11.102-3.811-18.393-3.811c-7.455,0-14.746,2.65-19.553,9.112
			c-1.324,1.657-2.484,3.812-3.313,6.131h39.104v13.422H407.72c-0.165,1.326-0.165,2.817-0.165,4.308c0,0.829,0,1.491,0,2.32h42.252
			v13.421h-39.436c0.994,2.983,2.32,5.302,3.977,7.291c4.971,5.634,12.428,7.953,20.547,7.953c6.959,0,14.746-2.154,18.227-3.977
			L457.596,252.279z"/>
	</g>
	<line class="st3" x1="45" y1="232.5" x2="347" y2="232.5"/>
	<line class="st2" x1="284" y1="315" x2="435" y2="315"/>
	<line class="st23" x1="45" y1="179" x2="347" y2="179"/>
</g>
<g id="visa">
</g>
<g id="mastercard">
</g>
<g id="diners_1_">
</g>
<g id="diners">
</g>
<g id="maestro_1_">
</g>
<g id="flat_x5F_maestro">
</g>
</svg>
