<?xml version="1.0" encoding="utf-8"?>
<!-- Generator: Adobe Illustrator 16.0.0, SVG Export Plug-In . SVG Version: 6.00 Build 0)  -->
<!DOCTYPE svg PUBLIC "-//W3C//DTD SVG 1.1//EN" "http://www.w3.org/Graphics/SVG/1.1/DTD/svg11.dtd">
<svg version="1.1" xmlns="http://www.w3.org/2000/svg" xmlns:xlink="http://www.w3.org/1999/xlink" x="0px" y="0px" width="500px"
	 height="500px" viewBox="0 0 500 500" style="enable-background:new 0 0 500 500;" xml:space="preserve">
<style type="text/css">
<![CDATA[
	.st0{fill:#EB001B;}
	.st1{fill:#1D1D1B;}
	.st2{opacity:0.45;fill:none;stroke:#000000;stroke-width:24;stroke-miterlimit:10;}
	.st3{opacity:0.45;fill:none;stroke:#000000;stroke-width:33;stroke-miterlimit:10;}
	.st4{fill:#211E1F;}
	.st5{fill:none;stroke:#000000;stroke-width:10;stroke-miterlimit:10;}
	.st6{fill:url(#path10283_1_);}
	.st7{fill:#231F20;}
	.st8{fill:none;stroke:#000000;stroke-width:17;stroke-linejoin:round;stroke-miterlimit:10;}
	.st9{fill:#F79410;}
	.st10{fill:#F79E1B;}
	.st11{clip-path:url(#SVGID_2_);}
	.st12{fill:#FF5F00;}
	.st13{fill:#FFFFFF;}
	.st14{fill:none;}
	.st15{fill:none;stroke:#000000;stroke-width:18;stroke-miterlimit:10;}
	.st16{fill:#FFFFFF;stroke:#000000;stroke-width:18;stroke-miterlimit:10;}
	.st17{fill:#6C6BBD;}
	.st18{fill:#0079BE;}
	.st19{fill:#0099DF;}
	.st20{fill:#1D1D1B;stroke:#1D1D1B;stroke-width:4.6655;stroke-miterlimit:10;}
	.st21{fill:none;stroke:#000000;stroke-width:26;stroke-miterlimit:10;}
	.st22{fill:#1D1D1B;stroke:#1D1D1B;stroke-width:6.2207;stroke-miterlimit:10;}
	.st23{opacity:0.45;fill:none;stroke:#000000;stroke-width:30;stroke-miterlimit:10;}
	.st24{fill:none;stroke:#000000;stroke-width:17;stroke-linejoin:bevel;stroke-miterlimit:10;}
]]>
</style>
<g id="paypal_x5F_logo">
</g>
<g id="cheque">
</g>
<g id="carte">
</g>
<g id="cb">
</g>
<g id="paypal_1_">
</g>
<g id="cheque_1_">
</g>
<g id="visa">
</g>
<g id="mastercard">
</g>
<g id="diners_1_">
</g>
<g id="diners">
	<path class="st8" d="M488.5,390.5c0,4.971-4.029,9-9,9h-456c-4.971,0-9-4.029-9-9v-291c0-4.971,4.029-9,9-9h456
		c4.971,0,9,4.029,9,9V390.5z"/>
	<g>
		<rect x="54.689" y="300.758" class="st14" width="379.311" height="122.242"/>
		<path d="M72.994,300.767h13.534c3.052,0,5.378,0.233,6.979,0.7c2.152,0.634,3.994,1.76,5.529,3.377
			c1.534,1.618,2.702,3.599,3.502,5.941c0.8,2.344,1.201,5.233,1.201,8.668c0,3.02-0.375,5.621-1.125,7.806
			c-0.917,2.669-2.227,4.828-3.928,6.479c-1.285,1.251-3.019,2.227-5.204,2.927c-1.635,0.517-3.819,0.775-6.554,0.775H72.994
			V300.767z M80.399,306.971v24.291h5.529c2.067,0,3.561-0.117,4.478-0.351c1.201-0.3,2.197-0.809,2.99-1.526
			c0.792-0.717,1.438-1.896,1.938-3.539c0.5-1.643,0.751-3.882,0.751-6.718c0-2.835-0.25-5.011-0.751-6.529
			c-0.5-1.517-1.201-2.701-2.101-3.552c-0.901-0.851-2.043-1.426-3.427-1.727c-1.034-0.233-3.061-0.35-6.079-0.35H80.399z"/>
		<path d="M109.793,337.44v-36.674h7.405v36.674H109.793z"/>
		<path d="M124.328,337.44v-36.674h7.205l15.01,24.491v-24.491h6.88v36.674h-7.43l-14.785-23.916v23.916H124.328z"/>
		<path d="M161.252,337.44v-36.674h27.193v6.204h-19.788v8.13h18.412v6.179h-18.412v9.982h20.489v6.179H161.252z"/>
		<path d="M195.45,337.44v-36.674h15.585c3.919,0,6.767,0.329,8.543,0.987c1.776,0.659,3.198,1.831,4.266,3.516
			c1.067,1.685,1.601,3.61,1.601,5.778c0,2.752-0.81,5.024-2.427,6.817c-1.618,1.793-4.036,2.923-7.255,3.39
			c1.601,0.934,2.923,1.96,3.965,3.077c1.042,1.117,2.447,3.102,4.215,5.954l4.478,7.154h-8.855l-5.354-7.98
			c-1.901-2.852-3.202-4.648-3.903-5.391s-1.443-1.251-2.227-1.526c-0.784-0.275-2.026-0.413-3.728-0.413h-1.501v15.311H195.45z
			 M202.854,316.276h5.479c3.552,0,5.77-0.15,6.654-0.45c0.884-0.3,1.576-0.817,2.076-1.551c0.5-0.734,0.75-1.651,0.75-2.752
			c0-1.234-0.33-2.23-0.988-2.989s-1.588-1.238-2.789-1.438c-0.601-0.084-2.402-0.125-5.404-0.125h-5.779V316.276z"/>
		<path d="M230.548,325.508l7.205-0.701c0.433,2.419,1.313,4.195,2.639,5.329c1.326,1.134,3.114,1.701,5.366,1.701
			c2.385,0,4.182-0.505,5.391-1.514s1.814-2.188,1.814-3.54c0-0.867-0.254-1.604-0.763-2.214c-0.509-0.608-1.397-1.138-2.664-1.589
			c-0.868-0.3-2.844-0.833-5.929-1.601c-3.969-0.984-6.754-2.193-8.355-3.628c-2.251-2.018-3.377-4.478-3.377-7.38
			c0-1.867,0.529-3.614,1.588-5.24s2.585-2.864,4.578-3.715c1.993-0.851,4.398-1.276,7.217-1.276c4.603,0,8.068,1.01,10.395,3.027
			c2.326,2.018,3.548,4.712,3.665,8.08l-7.405,0.325c-0.317-1.885-0.997-3.239-2.039-4.065c-1.042-0.825-2.606-1.238-4.69-1.238
			c-2.151,0-3.836,0.442-5.053,1.326c-0.784,0.567-1.176,1.326-1.176,2.276c0,0.867,0.367,1.609,1.101,2.227
			c0.934,0.784,3.202,1.602,6.805,2.452c3.602,0.85,6.267,1.729,7.993,2.639s3.077,2.151,4.053,3.728s1.463,3.523,1.463,5.842
			c0,2.101-0.584,4.069-1.751,5.903c-1.167,1.835-2.819,3.198-4.954,4.091c-2.135,0.892-4.795,1.338-7.98,1.338
			c-4.637,0-8.197-1.071-10.682-3.215C232.516,332.733,231.032,329.61,230.548,325.508z"/>
		<path d="M304.296,323.956l7.18,2.277c-1.101,4.002-2.931,6.976-5.491,8.918c-2.561,1.943-5.809,2.914-9.744,2.914
			c-4.87,0-8.873-1.663-12.008-4.99c-3.136-3.327-4.703-7.876-4.703-13.646c0-6.104,1.576-10.845,4.728-14.222
			c3.152-3.378,7.296-5.066,12.433-5.066c4.486,0,8.13,1.326,10.932,3.978c1.667,1.568,2.918,3.819,3.752,6.755l-7.33,1.751
			c-0.434-1.901-1.338-3.402-2.714-4.503s-3.048-1.651-5.016-1.651c-2.719,0-4.924,0.976-6.617,2.927
			c-1.693,1.952-2.539,5.112-2.539,9.481c0,4.637,0.834,7.939,2.501,9.907s3.836,2.951,6.504,2.951c1.968,0,3.661-0.625,5.079-1.876
			C302.662,328.609,303.679,326.642,304.296,323.956z"/>
		<path d="M318.031,337.44v-36.374h7.405v30.195h18.412v6.179H318.031z"/>
		<path d="M349.076,300.767h7.405v19.862c0,3.152,0.091,5.195,0.275,6.13c0.317,1.501,1.071,2.706,2.264,3.614
			c1.192,0.909,2.822,1.363,4.891,1.363c2.102,0,3.686-0.429,4.753-1.288c1.067-0.858,1.709-1.914,1.926-3.164
			c0.216-1.251,0.325-3.328,0.325-6.229v-20.288h7.405v19.263c0,4.402-0.2,7.514-0.601,9.331s-1.138,3.352-2.214,4.603
			s-2.514,2.248-4.315,2.989c-1.801,0.742-4.153,1.113-7.055,1.113c-3.502,0-6.158-0.404-7.968-1.213s-3.24-1.859-4.29-3.152
			c-1.051-1.292-1.743-2.647-2.077-4.064c-0.484-2.102-0.726-5.204-0.726-9.307V300.767z"/>
		<path d="M386.151,300.767h14.66c2.902,0,5.066,0.121,6.492,0.362c1.426,0.242,2.702,0.747,3.828,1.514
			c1.126,0.768,2.064,1.788,2.814,3.064c0.75,1.275,1.125,2.706,1.125,4.29c0,1.718-0.462,3.294-1.388,4.729
			s-2.181,2.51-3.765,3.227c2.235,0.65,3.953,1.76,5.153,3.327c1.201,1.568,1.801,3.411,1.801,5.529
			c0,1.668-0.388,3.289-1.163,4.865s-1.835,2.836-3.177,3.777c-1.343,0.942-2.998,1.522-4.966,1.739
			c-1.234,0.134-4.211,0.217-8.931,0.25h-12.483V300.767z M393.556,306.87v8.48h4.854c2.885,0,4.678-0.041,5.378-0.125
			c1.267-0.15,2.264-0.588,2.989-1.313c0.726-0.726,1.088-1.68,1.088-2.864c0-1.134-0.312-2.055-0.938-2.765
			c-0.625-0.708-1.555-1.138-2.79-1.288c-0.734-0.083-2.844-0.125-6.329-0.125H393.556z M393.556,321.455v9.807h6.854
			c2.668,0,4.361-0.075,5.079-0.226c1.101-0.2,1.997-0.688,2.689-1.464c0.691-0.775,1.038-1.813,1.038-3.114
			c0-1.101-0.267-2.034-0.801-2.802c-0.534-0.767-1.305-1.326-2.314-1.676c-1.009-0.351-3.198-0.525-6.567-0.525H393.556z"/>
		<path d="M76.693,379.687v-30.24h6.106v30.24H76.693z"/>
		<path d="M88.678,379.687v-30.24h5.941l12.376,20.194v-20.194h5.673v30.24h-6.126l-12.191-19.72v19.72H88.678z"/>
		<path d="M125.932,379.687v-25.124h-8.973v-5.116h24.031v5.116h-8.953v25.124H125.932z"/>
		<path d="M144.93,379.687v-30.24h22.422v5.116h-16.316v6.703h15.182v5.096h-15.182v8.23h16.894v5.095H144.93z"/>
		<path d="M173.127,379.687v-30.24h12.851c3.231,0,5.58,0.271,7.044,0.814c1.464,0.544,2.637,1.51,3.517,2.898
			c0.88,1.39,1.32,2.978,1.32,4.766c0,2.269-0.667,4.143-2.001,5.62c-1.334,1.479-3.328,2.411-5.982,2.796
			c1.32,0.77,2.41,1.615,3.27,2.537c0.859,0.921,2.018,2.558,3.476,4.909l3.692,5.899h-7.302l-4.414-6.58
			c-1.568-2.352-2.64-3.833-3.218-4.445s-1.19-1.031-1.836-1.259c-0.646-0.227-1.671-0.34-3.074-0.34h-1.238v12.624H173.127z
			 M179.233,362.235h4.518c2.929,0,4.758-0.124,5.487-0.371c0.729-0.248,1.299-0.674,1.712-1.279
			c0.413-0.604,0.619-1.361,0.619-2.269c0-1.018-0.271-1.839-0.814-2.465c-0.543-0.626-1.31-1.021-2.3-1.187
			c-0.495-0.068-1.98-0.103-4.456-0.103h-4.765V362.235z"/>
		<path d="M203.677,379.687v-30.24h5.941l12.376,20.194v-20.194h5.673v30.24h-6.126l-12.191-19.72v19.72H203.677z"/>
		<path d="M261.393,379.687h-6.642l-2.64-6.869h-12.088l-2.496,6.869h-6.477l11.778-30.24h6.457L261.393,379.687z M250.151,367.723
			l-4.167-11.222l-4.084,11.222H250.151z"/>
		<path d="M268.304,379.687v-25.124h-8.973v-5.116h24.031v5.116h-8.953v25.124H268.304z"/>
		<path d="M287.116,379.687v-30.24h6.106v30.24H287.116z"/>
		<path d="M297.801,364.752c0-3.08,0.46-5.665,1.382-7.756c0.688-1.54,1.626-2.922,2.816-4.146c1.189-1.224,2.492-2.131,3.909-2.723
			c1.884-0.797,4.057-1.196,6.519-1.196c4.456,0,8.021,1.382,10.695,4.146c2.675,2.764,4.012,6.607,4.012,11.53
			c0,4.882-1.327,8.702-3.981,11.459c-2.654,2.757-6.202,4.136-10.644,4.136c-4.497,0-8.073-1.372-10.727-4.115
			C299.128,373.344,297.801,369.565,297.801,364.752z M304.093,364.546c0,3.424,0.791,6.02,2.372,7.787
			c1.581,1.767,3.589,2.65,6.023,2.65s4.431-0.877,5.992-2.63c1.561-1.754,2.341-4.384,2.341-7.891c0-3.465-0.76-6.05-2.279-7.756
			c-1.52-1.705-3.538-2.558-6.054-2.558s-4.545,0.863-6.085,2.589S304.093,361.066,304.093,364.546z"/>
		<path d="M331.96,379.687v-30.24h5.941l12.376,20.194v-20.194h5.673v30.24h-6.126l-12.191-19.72v19.72H331.96z"/>
		<path d="M389.677,379.687h-6.642l-2.64-6.869h-12.088l-2.496,6.869h-6.477l11.778-30.24h6.457L389.677,379.687z M378.435,367.723
			l-4.167-11.222l-4.084,11.222H378.435z"/>
		<path d="M393.081,379.687v-29.992h6.105v24.897h15.182v5.095H393.081z"/>
	</g>
	<path d="M221.458,113c-46.106,0-83.566,37.234-83.566,83.341c0,44.667,35.107,80.999,79.107,83.232V280h48v-0.36
		c45-1.354,80.986-38.049,80.986-83.299c0-46.106-37.314-83.341-83.42-83.341H221.458z"/>
	<path class="st13" d="M229.166,119.851c-42.332,0-76.649,34.317-76.649,76.649s34.317,76.648,76.649,76.648
		s76.649-34.316,76.649-76.648S271.498,119.851,229.166,119.851z M174.761,196.5c0-26.215,18.239-48.093,43.239-53.235v106.469
		C193,244.593,174.761,222.715,174.761,196.5z M240,249.739V143.26c25,5.134,43.259,27.018,43.259,53.24
		C283.259,222.723,265,244.605,240,249.739z"/>
</g>
<g id="maestro_1_">
</g>
<g id="flat_x5F_maestro">
</g>
</svg>
