<?xml version="1.0" encoding="utf-8"?>
<!-- Generator: Adobe Illustrator 16.0.0, SVG Export Plug-In . SVG Version: 6.00 Build 0)  -->
<!DOCTYPE svg PUBLIC "-//W3C//DTD SVG 1.1//EN" "http://www.w3.org/Graphics/SVG/1.1/DTD/svg11.dtd">
<svg version="1.1" xmlns="http://www.w3.org/2000/svg" xmlns:xlink="http://www.w3.org/1999/xlink" x="0px" y="0px" width="500px"
	 height="500px" viewBox="0 0 500 500" style="enable-background:new 0 0 500 500;" xml:space="preserve">
<style type="text/css">
<![CDATA[
	.st0{fill:#EB001B;}
	.st1{fill:#1D1D1B;}
	.st2{opacity:0.45;fill:none;stroke:#000000;stroke-width:24;stroke-miterlimit:10;}
	.st3{opacity:0.45;fill:none;stroke:#000000;stroke-width:33;stroke-miterlimit:10;}
	.st4{fill:#211E1F;}
	.st5{fill:none;stroke:#000000;stroke-width:10;stroke-miterlimit:10;}
	.st6{fill:url(#path10283_1_);}
	.st7{fill:#231F20;}
	.st8{fill:none;stroke:#000000;stroke-width:17;stroke-linejoin:round;stroke-miterlimit:10;}
	.st9{fill:#F79410;}
	.st10{fill:#F79E1B;}
	.st11{clip-path:url(#SVGID_2_);}
	.st12{fill:#FF5F00;}
	.st13{fill:#FFFFFF;}
	.st14{fill:none;}
	.st15{fill:none;stroke:#000000;stroke-width:18;stroke-miterlimit:10;}
	.st16{fill:#FFFFFF;stroke:#000000;stroke-width:18;stroke-miterlimit:10;}
	.st17{fill:#6C6BBD;}
	.st18{fill:#0079BE;}
	.st19{fill:#0099DF;}
	.st20{fill:#1D1D1B;stroke:#1D1D1B;stroke-width:4.6655;stroke-miterlimit:10;}
	.st21{fill:none;stroke:#000000;stroke-width:26;stroke-miterlimit:10;}
	.st22{fill:#1D1D1B;stroke:#1D1D1B;stroke-width:6.2207;stroke-miterlimit:10;}
	.st23{opacity:0.45;fill:none;stroke:#000000;stroke-width:30;stroke-miterlimit:10;}
	.st24{fill:none;stroke:#000000;stroke-width:17;stroke-linejoin:bevel;stroke-miterlimit:10;}
]]>
</style>
<g id="paypal_x5F_logo">
</g>
<g id="cheque">
</g>
<g id="carte">
</g>
<g id="cb">
</g>
<g id="paypal_1_">
</g>
<g id="cheque_1_">
</g>
<g id="visa">
</g>
<g id="mastercard">
</g>
<g id="diners_1_">
</g>
<g id="diners">
</g>
<g id="maestro_1_">
</g>
<g id="flat_x5F_maestro">
	<path class="st8" d="M485.5,390.5c0,4.971-4.029,9-9,9h-456c-4.971,0-9-4.029-9-9v-291c0-4.971,4.029-9,9-9h456
		c4.971,0,9,4.029,9,9V390.5z"/>
	<g>
		<rect x="38" y="316.498" class="st14" width="422" height="68"/>
		<path d="M110.535,357.31v-40.802h12.33l7.403,27.832l7.319-27.832h12.357v40.802h-7.653v-32.118l-8.099,32.118h-7.933
			l-8.071-32.118v32.118H110.535z"/>
		<path d="M194.923,357.31h-8.963l-3.562-9.269h-16.309l-3.368,9.269h-8.739l15.893-40.802h8.711L194.923,357.31z M179.754,341.167
			l-5.622-15.141l-5.511,15.141H179.754z"/>
		<path d="M199.291,357.31v-40.802h30.254v6.902h-22.016v9.045h20.484v6.875h-20.484v11.105h22.795v6.874H199.291z"/>
		<path d="M235.223,344.033l8.016-0.779c0.482,2.691,1.461,4.667,2.937,5.929c1.475,1.263,3.465,1.893,5.97,1.893
			c2.653,0,4.652-0.562,5.998-1.684c1.345-1.122,2.018-2.436,2.018-3.938c0-0.965-0.283-1.785-0.849-2.463
			c-0.566-0.678-1.555-1.267-2.965-1.768c-0.965-0.334-3.163-0.928-6.596-1.781c-4.416-1.095-7.515-2.439-9.296-4.035
			c-2.505-2.245-3.757-4.982-3.757-8.211c0-2.078,0.588-4.021,1.767-5.831c1.179-1.809,2.876-3.187,5.094-4.133
			c2.217-0.946,4.894-1.419,8.029-1.419c5.121,0,8.976,1.123,11.564,3.367c2.588,2.245,3.947,5.242,4.077,8.99l-8.238,0.361
			c-0.353-2.097-1.109-3.604-2.269-4.522c-1.159-0.919-2.899-1.378-5.218-1.378c-2.395,0-4.269,0.492-5.623,1.475
			c-0.872,0.631-1.308,1.476-1.308,2.533c0,0.965,0.408,1.791,1.225,2.477c1.039,0.873,3.562,1.781,7.57,2.729
			c4.008,0.945,6.972,1.925,8.893,2.936c1.92,1.012,3.423,2.394,4.509,4.147c1.085,1.753,1.628,3.92,1.628,6.499
			c0,2.338-0.649,4.527-1.948,6.568s-3.136,3.558-5.511,4.55c-2.375,0.993-5.335,1.489-8.878,1.489
			c-5.159,0-9.12-1.191-11.885-3.576S235.761,348.598,235.223,344.033z"/>
		<path d="M284.514,357.31V323.41h-12.107v-6.902h32.424v6.902h-12.078v33.899H284.514z"/>
		<path d="M310.175,357.31v-40.802h17.339c4.36,0,7.529,0.367,9.505,1.1c1.977,0.732,3.558,2.036,4.745,3.91
			c1.188,1.875,1.781,4.018,1.781,6.43c0,3.061-0.899,5.59-2.699,7.584s-4.49,3.252-8.071,3.771c1.781,1.039,3.252,2.18,4.411,3.423
			s2.723,3.451,4.689,6.624l4.982,7.96h-9.853l-5.956-8.878c-2.115-3.174-3.562-5.172-4.342-5.998s-1.605-1.392-2.477-1.698
			c-0.873-0.306-2.255-0.459-4.147-0.459h-1.67v17.033H310.175z M318.413,333.764h6.095c3.953,0,6.42-0.167,7.404-0.501
			c0.982-0.334,1.753-0.909,2.31-1.726s0.835-1.837,0.835-3.062c0-1.373-0.366-2.481-1.1-3.326
			c-0.733-0.844-1.768-1.378-3.104-1.601c-0.668-0.092-2.672-0.139-6.012-0.139h-6.429V333.764z"/>
		<path d="M349.641,337.159c0-4.156,0.622-7.644,1.865-10.465c0.928-2.077,2.194-3.942,3.799-5.595
			c1.604-1.65,3.363-2.875,5.274-3.674c2.542-1.075,5.474-1.613,8.795-1.613c6.012,0,10.822,1.864,14.431,5.594
			s5.414,8.916,5.414,15.559c0,6.586-1.791,11.74-5.372,15.46c-3.581,3.721-8.368,5.581-14.361,5.581
			c-6.067,0-10.892-1.852-14.473-5.553C351.432,348.751,349.641,343.654,349.641,337.159z M358.13,336.881
			c0,4.62,1.066,8.123,3.2,10.507s4.844,3.576,8.127,3.576c3.285,0,5.979-1.183,8.086-3.549c2.105-2.365,3.158-5.914,3.158-10.646
			c0-4.676-1.025-8.164-3.075-10.465s-4.772-3.451-8.169-3.451c-3.395,0-6.132,1.164-8.21,3.493S358.13,332.188,358.13,336.881z"/>
	</g>
	<circle class="st16" cx="189.8" cy="199.5" r="83.5"/>
	<circle class="st15" cx="307.8" cy="199.5" r="83.5"/>
</g>
</svg>
