<?xml version="1.0" encoding="utf-8"?>
<!-- Generator: Adobe Illustrator 16.0.0, SVG Export Plug-In . SVG Version: 6.00 Build 0)  -->
<!DOCTYPE svg PUBLIC "-//W3C//DTD SVG 1.1//EN" "http://www.w3.org/Graphics/SVG/1.1/DTD/svg11.dtd">
<svg version="1.1" xmlns="http://www.w3.org/2000/svg" xmlns:xlink="http://www.w3.org/1999/xlink" x="0px" y="0px" width="500px"
	 height="500px" viewBox="0 0 500 500" style="enable-background:new 0 0 500 500;" xml:space="preserve">
<style type="text/css">
<![CDATA[
	.st0{fill:#EB001B;}
	.st1{fill:#1D1D1B;}
	.st2{opacity:0.45;fill:none;stroke:#000000;stroke-width:24;stroke-miterlimit:10;}
	.st3{opacity:0.45;fill:none;stroke:#000000;stroke-width:33;stroke-miterlimit:10;}
	.st4{fill:#211E1F;}
	.st5{fill:none;stroke:#000000;stroke-width:10;stroke-miterlimit:10;}
	.st6{fill:url(#path10283_1_);}
	.st7{fill:#231F20;}
	.st8{fill:none;stroke:#000000;stroke-width:17;stroke-linejoin:round;stroke-miterlimit:10;}
	.st9{fill:#F79410;}
	.st10{fill:#F79E1B;}
	.st11{clip-path:url(#SVGID_2_);}
	.st12{fill:#FF5F00;}
	.st13{fill:#FFFFFF;}
	.st14{fill:none;}
	.st15{fill:none;stroke:#000000;stroke-width:18;stroke-miterlimit:10;}
	.st16{fill:#FFFFFF;stroke:#000000;stroke-width:18;stroke-miterlimit:10;}
	.st17{fill:#6C6BBD;}
	.st18{fill:#0079BE;}
	.st19{fill:#0099DF;}
	.st20{fill:#1D1D1B;stroke:#1D1D1B;stroke-width:4.6655;stroke-miterlimit:10;}
	.st21{fill:none;stroke:#000000;stroke-width:26;stroke-miterlimit:10;}
	.st22{fill:#1D1D1B;stroke:#1D1D1B;stroke-width:6.2207;stroke-miterlimit:10;}
	.st23{opacity:0.45;fill:none;stroke:#000000;stroke-width:30;stroke-miterlimit:10;}
	.st24{fill:none;stroke:#000000;stroke-width:17;stroke-linejoin:bevel;stroke-miterlimit:10;}
]]>
</style>
<g id="paypal_x5F_logo">
</g>
<g id="cheque">
</g>
<g id="carte">
</g>
<g id="cb">
</g>
<g id="paypal_1_">
	<path class="st24" d="M484.5,390.5c0,4.971-4.029,9-9,9h-456c-4.971,0-9-4.029-9-9v-291c0-4.971,4.029-9,9-9h456
		c4.971,0,9,4.029,9,9V390.5z"/>
	<g>
		<rect x="42.001" y="328" class="st14" width="422" height="48"/>
		<path d="M148.909,368.812V328.01h13.221c5.01,0,8.275,0.205,9.797,0.612c2.338,0.612,4.295,1.944,5.873,3.994
			c1.576,2.05,2.365,4.699,2.365,7.946c0,2.504-0.455,4.61-1.363,6.317c-0.91,1.708-2.064,3.048-3.466,4.021
			c-1.401,0.975-2.825,1.619-4.272,1.935c-1.967,0.39-4.814,0.584-8.544,0.584h-5.372v15.392H148.909z M157.147,334.912v11.578h4.51
			c3.246,0,5.417-0.213,6.512-0.641c1.095-0.426,1.953-1.094,2.575-2.004c0.621-0.908,0.933-1.966,0.933-3.172
			c0-1.484-0.437-2.709-1.309-3.674s-1.977-1.568-3.312-1.81c-0.983-0.185-2.959-0.278-5.928-0.278H157.147z"/>
		<path d="M219.492,368.812h-8.963l-3.562-9.269h-16.309l-3.368,9.269h-8.739l15.893-40.802h8.711L219.492,368.812z
			 M204.323,352.669l-5.622-15.141l-5.511,15.141H204.323z"/>
		<path d="M229.344,368.812v-17.173l-14.946-23.629h9.658l9.602,16.143l9.408-16.143h9.49l-15.002,23.686v17.116H229.344z"/>
		<path d="M256.646,368.812V328.01h13.221c5.01,0,8.275,0.205,9.797,0.612c2.338,0.612,4.295,1.944,5.873,3.994
			c1.576,2.05,2.365,4.699,2.365,7.946c0,2.504-0.455,4.61-1.363,6.317c-0.91,1.708-2.064,3.048-3.466,4.021
			c-1.401,0.975-2.825,1.619-4.272,1.935c-1.967,0.39-4.814,0.584-8.544,0.584h-5.372v15.392H256.646z M264.885,334.912v11.578h4.51
			c3.246,0,5.417-0.213,6.512-0.641c1.095-0.426,1.953-1.094,2.575-2.004c0.621-0.908,0.933-1.966,0.933-3.172
			c0-1.484-0.437-2.709-1.309-3.674s-1.977-1.568-3.312-1.81c-0.983-0.185-2.959-0.278-5.928-0.278H264.885z"/>
		<path d="M327.229,368.812h-8.963l-3.562-9.269h-16.309l-3.368,9.269h-8.739l15.893-40.802h8.711L327.229,368.812z
			 M312.061,352.669l-5.622-15.141l-5.511,15.141H312.061z"/>
		<path d="M331.821,368.812v-40.468h8.238v33.594h20.484v6.874H331.821z"/>
	</g>
	<g>
		<path class="st1" d="M221.593,231h24.74c0,0,22.231,0.441,32.385-3.27c16.837-6.153,30.565-18.271,35.959-27.447
			c3.252-5.533,16.822-29.917,9.462-54.101C316.779,122,290.309,118,284.396,118s-86.953,0-86.953,0l-36.64,169h48.459L221.593,231z
			 M253.326,199.279l6.142-25.254l19.25-0.033C274.828,197.649,253.326,199.279,253.326,199.279z M238.515,153h22.014
			c16.823,0,18.189,12,18.189,12h-25.247l-9.766,34h-15.771L238.515,153z"/>
		<path class="st1" d="M335.968,156.223c1.893,4.258,11.73,22.998-6.624,53.851c-18.228,30.641-47.734,33.231-58.127,33.405
			c-2.759,0.047-36.027-0.237-36.027-0.237L222.414,300h-40.159l-2.424,8h48.378l12.657-55.869l37.055-0.011
			c23.56,0.264,46.155-16.803,53.177-26.771C357.97,189.461,335.968,156.223,335.968,156.223z"/>
	</g>
</g>
<g id="cheque_1_">
</g>
<g id="visa">
</g>
<g id="mastercard">
</g>
<g id="diners_1_">
</g>
<g id="diners">
</g>
<g id="maestro_1_">
</g>
<g id="flat_x5F_maestro">
</g>
</svg>
